<svg width="20" height="20" viewBox="0 0 20 20" fill="none" xmlns="http://www.w3.org/2000/svg">
<rect x="0.5" y="0.5" width="19" height="19" rx="9.5" stroke="#AD1818"/>
<mask id="mask0" mask-type="alpha" maskUnits="userSpaceOnUse" x="4" y="5" width="13" height="10">
<rect x="4" y="5" width="13" height="10" fill="#C4C4C4"/>
</mask>
<g mask="url(#mask0)">
<path d="M16.1651 5.863C16.5389 6.23684 16.5389 6.84283 16.1651 7.21648L9.74474 13.637C9.3709 14.0107 8.76509 14.0107 8.39125 13.637L5.33492 10.5805C4.96108 10.2068 4.96108 9.60084 5.33492 9.22718C5.70858 8.85334 6.31457 8.85334 6.68822 9.22718L9.06791 11.6069L14.8116 5.863C15.1854 5.48934 15.7914 5.48934 16.1651 5.863ZM23 9.75C23 16.5212 17.5202 22 10.75 22C3.97882 22 -1.5 16.5202 -1.5 9.75C-1.5 2.97882 3.97975 -2.5 10.75 -2.5C17.5212 -2.5 23 2.97975 23 9.75ZM21.0859 9.75C21.0859 4.03679 16.4625 -0.585938 10.75 -0.585938C5.03679 -0.585938 0.414062 4.03753 0.414062 9.75C0.414062 15.4632 5.03753 20.0859 10.75 20.0859C16.4632 20.0859 21.0859 15.4625 21.0859 9.75Z" fill="#AD1818"/>
</g>
</svg>
