<svg width="19" height="18" viewBox="0 0 19 18" fill="none" xmlns="http://www.w3.org/2000/svg">
<g clip-path="url(#clip0)">
<path d="M18.9812 5.29205C18.9367 4.33564 18.7735 3.67812 18.5396 3.10836C18.2984 2.50359 17.9272 1.96213 17.4409 1.51201C16.9658 1.05489 16.3905 0.699691 15.7595 0.474702C15.1546 0.253147 14.4642 0.0984842 13.4546 0.0563159C12.4375 0.0105764 12.1147 0 9.53506 0C6.95545 0 6.63257 0.0105764 5.61926 0.0527447C4.60971 0.0949129 3.91566 0.249713 3.3144 0.471131C2.67588 0.699691 2.10434 1.05132 1.62922 1.51201C1.1467 1.96213 0.771911 2.50716 0.534278 3.10493C0.300414 3.67812 0.137159 4.33207 0.0926477 5.28848C0.0443671 6.25203 0.0332031 6.55792 0.0332031 9.00176C0.0332031 11.4456 0.0443671 11.7515 0.0888781 12.7115C0.133389 13.6679 0.296789 14.3254 0.530653 14.8952C0.771911 15.4999 1.1467 16.0414 1.62922 16.4915C2.10434 16.9486 2.67965 17.3038 3.31063 17.5288C3.91566 17.7504 4.60594 17.905 5.61563 17.9472C6.6288 17.9895 6.95183 17.9999 9.53143 17.9999C12.111 17.9999 12.4339 17.9895 13.4472 17.9472C14.4568 17.905 15.1508 17.7504 15.7521 17.5288C17.029 17.0611 18.0385 16.1047 18.5322 14.8952C18.7659 14.322 18.9293 13.6679 18.9738 12.7115C19.0184 11.7515 19.0295 11.4456 19.0295 9.00176C19.0295 6.55792 19.0258 6.25203 18.9812 5.29205ZM17.2703 12.6411C17.2294 13.5202 17.0735 13.9949 16.9436 14.3114C16.6243 15.0956 15.9674 15.7179 15.1397 16.0204C14.8056 16.1434 14.3009 16.2911 13.3766 16.3297C12.3745 16.372 12.0739 16.3824 9.53883 16.3824C7.00373 16.3824 6.69941 16.372 5.70088 16.3297C4.77297 16.2911 4.27189 16.1434 3.93784 16.0204C3.52594 15.8761 3.151 15.6476 2.84667 15.3487C2.53118 15.0568 2.28992 14.7052 2.13769 14.315C2.00778 13.9985 1.85192 13.5202 1.81118 12.6447C1.76652 11.6953 1.7555 11.4104 1.7555 9.00876C1.7555 6.60709 1.76652 6.31878 1.81118 5.37295C1.85192 4.49387 2.00778 4.01917 2.13769 3.7027C2.28992 3.31234 2.53118 2.95727 2.85044 2.66883C3.15839 2.36994 3.52956 2.14138 3.94161 1.99729C4.27566 1.87422 4.78051 1.72656 5.70465 1.68783C6.7068 1.64566 7.0075 1.63508 9.54245 1.63508C12.0813 1.63508 12.3819 1.64566 13.3804 1.68783C14.3083 1.72656 14.8094 1.87422 15.1434 1.99729C15.5553 2.14138 15.9303 2.36994 16.2346 2.66883C16.5501 2.96071 16.7914 3.31234 16.9436 3.7027C17.0735 4.01917 17.2294 4.49731 17.2703 5.37295C17.3148 6.32236 17.3259 6.60709 17.3259 9.00876C17.3259 11.4104 17.3148 11.6917 17.2703 12.6411Z" fill="#7999DF"/>
<path d="M9.53513 4.37769C6.84055 4.37769 4.6543 6.44874 4.6543 9.00164C4.6543 11.5545 6.84055 13.6256 9.53513 13.6256C12.2299 13.6256 14.416 11.5545 14.416 9.00164C14.416 6.44874 12.2299 4.37769 9.53513 4.37769ZM9.53513 12.0011C7.78702 12.0011 6.36905 10.6579 6.36905 9.00164C6.36905 7.3454 7.78702 6.00219 9.53513 6.00219C11.2834 6.00219 12.7012 7.3454 12.7012 9.00164C12.7012 10.6579 11.2834 12.0011 9.53513 12.0011Z" fill="#7999DF"/>
<path d="M15.7488 4.19496C15.7488 4.79108 15.2386 5.27444 14.6092 5.27444C13.9799 5.27444 13.4697 4.79108 13.4697 4.19496C13.4697 3.5987 13.9799 3.11548 14.6092 3.11548C15.2386 3.11548 15.7488 3.5987 15.7488 4.19496Z" fill="#7999DF"/>
</g>
<defs>
<clipPath id="clip0">
<rect width="19" height="18" fill="white"/>
</clipPath>
</defs>
</svg>
