<svg width="20" height="20" viewBox="0 0 20 20" fill="none" xmlns="http://www.w3.org/2000/svg">
<path d="M19.4141 4.72656H14.0332C14.0787 4.51742 14.1016 4.32219 14.1016 4.14062C14.1016 1.85746 12.2616 0 10 0C7.7384 0 5.89844 1.85746 5.89844 4.14062C5.89844 4.32219 5.92129 4.51742 5.9668 4.72656H3.51562V2.96875C3.51562 2.64516 3.25328 2.38281 2.92969 2.38281H2.34375C1.05141 2.38281 0 3.43422 0 4.72656V17.6172C0 18.907 1.04203 20 2.34375 20H19.4141C19.7377 20 20 19.7377 20 19.4141V5.3125C20 4.98891 19.7377 4.72656 19.4141 4.72656ZM10 1.17188C11.6154 1.17188 12.9297 2.50363 12.9297 4.14062C12.9297 5.41797 10.8255 8.12695 9.99988 9.10645C9.17254 8.12531 7.07031 5.41844 7.07031 4.14062C7.07031 2.50363 8.38457 1.17188 10 1.17188ZM1.17188 4.72656C1.17188 4.08039 1.69758 3.55469 2.34375 3.55469V15.2734C1.91719 15.2734 1.5168 15.388 1.17188 15.588V4.72656ZM18.8281 18.8281H2.34375C1.70852 18.8281 1.17188 18.2736 1.17188 17.6172C1.17188 16.971 1.69758 16.4453 2.34375 16.4453H2.92969C3.25328 16.4453 3.51562 16.183 3.51562 15.8594V5.89844H6.38945C7.09594 7.38027 8.59895 9.31621 9.56391 10.3913C9.67094 10.5107 9.83254 10.5859 10 10.5859H14.6875C15.0106 10.5859 15.2734 10.8488 15.2734 11.1719C15.2734 11.495 15.0106 11.7578 14.6875 11.7578H8.24219C6.94984 11.7578 5.89844 12.8092 5.89844 14.1016C5.89844 15.3939 6.94984 16.4453 8.24219 16.4453H11.1719C11.4955 16.4453 11.7578 16.183 11.7578 15.8594C11.7578 15.5358 11.4955 15.2734 11.1719 15.2734H8.24219C7.59602 15.2734 7.07031 14.7477 7.07031 14.1016C7.07031 13.4554 7.59602 12.9297 8.24219 12.9297H14.6875C15.6568 12.9297 16.4453 12.1411 16.4453 11.1719C16.4453 10.2026 15.6568 9.41406 14.6875 9.41406H11.2603C11.5513 9.05367 11.8912 8.61645 12.2335 8.14051C12.8434 7.29246 13.3008 6.54812 13.6105 5.89844H18.8281V18.8281Z" fill="#7999DF"/>
<path d="M16.2738 16.617L15.5162 15.8594L16.2738 15.1018C16.5026 14.873 16.5026 14.502 16.2737 14.2732C16.0449 14.0444 15.6739 14.0444 15.4451 14.2732L14.6875 15.0308L13.9299 14.2732C13.7012 14.0444 13.3301 14.0444 13.1013 14.2732C12.8725 14.502 12.8725 14.873 13.1013 15.1018L13.8589 15.8594L13.1013 16.617C12.8725 16.8458 12.8725 17.2168 13.1013 17.4456C13.3301 17.6745 13.7012 17.6745 13.9299 17.4456L14.6875 16.688L15.4451 17.4456C15.6739 17.6745 16.045 17.6745 16.2738 17.4456C16.5026 17.2168 16.5026 16.8458 16.2738 16.617Z" fill="#7999DF"/>
<path d="M10 2.34375C9.02844 2.34375 8.24219 3.16781 8.24219 4.14062C8.24219 5.10988 9.03074 5.89844 10 5.89844C10.9693 5.89844 11.7578 5.10988 11.7578 4.14062C11.7578 3.16926 10.9728 2.34375 10 2.34375ZM10 4.72656C9.67691 4.72656 9.41406 4.46371 9.41406 4.14062C9.41406 3.8077 9.68785 3.51562 10 3.51562C10.3121 3.51562 10.5859 3.8077 10.5859 4.14062C10.5859 4.46371 10.3231 4.72656 10 4.72656Z" fill="#7999DF"/>
</svg>
