<svg width="11" height="11" viewBox="0 0 11 11" fill="none" xmlns="http://www.w3.org/2000/svg">
<path d="M10.1509 0.378994C9.63379 -0.126331 8.81113 -0.126331 8.29403 0.378994C8.28228 0.390746 1.07811 7.59458 0.960591 7.71209C0.937086 7.7356 0.925334 7.7591 0.913582 7.79436C0.901829 7.84136 0.0086537 10.7205 0.0086537 10.7323C-0.0383555 10.8968 0.114425 11.0378 0.267205 10.9908C0.596269 10.8851 2.94673 10.1682 3.20528 10.0859C3.21703 10.0859 3.2758 10.0507 3.28755 10.0389C3.52259 9.80391 10.5505 2.77635 10.621 2.70584C11.1263 2.18877 11.1263 1.36614 10.621 0.849065L10.1509 0.378994ZM7.25983 2.01249C7.27158 2.02424 8.03548 2.78811 7.98847 2.7411C7.35385 3.37569 2.69993 8.02939 2.06531 8.66399C1.70099 8.58172 1.41893 8.29968 1.33666 7.93538L7.25983 2.01249ZM0.514003 10.4855L0.749049 9.7334C0.948839 9.89792 1.11337 10.0624 1.26615 10.2505L0.514003 10.4855ZM1.70099 10.1212C1.46594 9.82741 1.19564 9.54537 0.890077 9.31033L1.14863 8.48771C1.33666 8.76975 1.63047 8.96953 1.97129 9.05179C2.05356 9.38084 2.25334 9.67464 2.5354 9.87442L1.70099 10.1212ZM3.07601 9.67464C2.71168 9.59238 2.42963 9.31033 2.34736 8.94603L8.27053 3.02314C8.30578 3.0584 9.02267 3.77525 8.99917 3.75175L3.07601 9.67464ZM9.29298 3.45796C8.6701 2.84686 7.92971 2.09475 7.55364 1.7187L8.00022 1.27213L9.73956 3.01139L9.29298 3.45796ZM10.3389 2.4238L10.0334 2.72935L8.29403 0.978334L8.59959 0.672788C8.95216 0.320236 9.51627 0.320236 9.86884 0.672788L10.3389 1.14286C10.6797 1.49541 10.6797 2.07125 10.3389 2.4238Z" fill="#363545"/>
</svg>
