<svg width="13" height="15" viewBox="0 0 13 15" fill="none" xmlns="http://www.w3.org/2000/svg">
<path d="M11.845 11.7767L10.0851 9.4699C9.83847 9.14739 9.38565 9.0921 9.0743 9.34644L8.39581 9.89873C8.0825 10.1531 6.74202 10.2991 5.38217 8.51811C4.023 6.73702 4.45257 5.44078 4.76413 5.18648L5.44249 4.63392C5.75482 4.38013 5.80861 3.91255 5.56268 3.58971L3.80229 1.28326C3.556 0.960658 3.10305 0.905559 2.79019 1.15953C2.79019 1.15953 2.0998 1.72359 2.09368 1.72904C1.13872 2.54265 0.792943 3.93121 1.12038 5.65055C1.40329 7.13592 2.17479 8.75915 3.28982 10.2215C4.40673 11.6832 5.75451 12.8365 7.08743 13.4672C8.64831 14.2076 10.0519 14.1751 11.042 13.3775C11.0434 13.3761 11.0453 13.3746 11.0466 13.3734L11.7251 12.8212C12.0385 12.5667 12.0915 12.0994 11.845 11.7767Z" stroke="#AD1818"/>
</svg>
