<svg width="15" height="20" viewBox="0 0 15 20" fill="none" xmlns="http://www.w3.org/2000/svg">
<path d="M9.38528 1.52576H6.00061C6.00061 0.862101 5.57216 0.301554 4.9787 0.0921504C4.8202 0.0364268 4.6527 0 4.47486 0C3.6334 0 2.9491 0.684587 2.9491 1.52576V6.72163C2.9491 7.5628 3.6334 8.24742 4.47486 8.24742C4.6527 8.24742 4.8202 8.21096 4.9787 8.15531C5.57216 7.94587 6.00061 7.38532 6.00061 6.72163V4.61856C6.00061 4.28512 5.74996 4.02097 5.42841 3.97649C5.39877 3.97228 5.37179 3.95875 5.3408 3.95875C4.97612 3.95875 4.68099 4.25421 4.68099 4.61856V6.72163C4.68099 6.83536 4.58818 6.92784 4.47481 6.92784C4.36145 6.92784 4.26864 6.83536 4.26864 6.72163V2.72711L8.93491 2.72392V5.29963C8.93491 6.05253 9.54632 6.66365 10.2983 6.66365L12.8227 6.65658L12.8504 18.0338C12.8504 18.4539 12.5103 18.7951 12.0896 18.7951H1.9659C1.54567 18.7951 1.20421 18.4539 1.20421 18.0338V3.49195C1.20421 3.07473 1.54252 2.73581 1.95944 2.73226V1.52641C0.878209 1.52997 0 2.41043 0 3.49195V18.0338C0 19.1176 0.88148 20 1.9659 20H12.0896C13.1733 20 14.0561 19.1176 14.0561 18.0338V6.17948L9.38528 1.52576ZM4.26868 1.52576C4.26868 1.41202 4.36149 1.31958 4.47486 1.31958C4.58822 1.31958 4.68103 1.41202 4.68103 1.52576H4.26868Z" fill="#7999DF"/>
</svg>
